<svg xmlns="http://www.w3.org/2000/svg" xmlns:xlink="http://www.w3.org/1999/xlink" viewBox="0 0 1084.43 1094.39"><defs><style>.cls-1{fill:none;}.cls-2{fill:#efd7c7;}.cls-3{clip-path:url(#clip-path);}.cls-4{fill:#513232;}.cls-5{fill:#a37f79;}.cls-6{fill:#fff;}.cls-7{fill:#110808;}.cls-8{fill:#ea9466;}.cls-9{fill:#b96d52;}.cls-10,.cls-11,.cls-14{fill:#b76456;}.cls-10{opacity:0.57;}.cls-12{fill:#3f1f1c;}.cls-13{fill:#1e0f0f;}.cls-14{opacity:0.64;}</style><clipPath id="clip-path" transform="translate(-1.9)"><circle class="cls-1" cx="542.21" cy="542.21" r="542.21"/></clipPath></defs><g id="Layer_2" data-name="Layer 2"><g id="OBEJCTS"><circle class="cls-2" cx="542.21" cy="542.21" r="542.21"/><g class="cls-3"><path class="cls-4" d="M733.09,671,941.61,794.9a47.87,47.87,0,0,1,20.08,23.59L980.42,866c-18.08,24.32-164.29,214.11-422.36,222.59-279.95,9.2-444-203.11-458.5-222.59l28.11-57.79a47.81,47.81,0,0,1,18.09-19.9l203-124Z" transform="translate(-1.9)"/><path class="cls-5" d="M438.33,618.34l-89.54,46c.72,17.8,4.94,61.82,36.14,104.63A190,190,0,0,0,452,826.09q-10.39-37.1-20.81-74.2H656.73l-20,74.2c19.4-13.12,56.5-42.31,79.26-93.22A215.88,215.88,0,0,0,733.09,671l-79.81-47.69Z" transform="translate(-1.9)"/><path class="cls-6" d="M431.22,751.89H656.73l-20,74.2-24.11,7c6.67,46.51,12,96.5,15.22,149.67,2.06,34.11,3.08,67,3.28,98.44a312,312,0,0,1-178.51.35L468,831.8l-16-5.71Z" transform="translate(-1.9)"/><path class="cls-7" d="M948.47,799.93a575.48,575.48,0,0,0-85,179.62l-5.24,3.81A532.23,532.23,0,0,1,905,857.11a526.63,526.63,0,0,1,37.76-61.51Z" transform="translate(-1.9)"/><path class="cls-7" d="M131.54,799.93a576.39,576.39,0,0,1,45.22,75.62,576.42,576.42,0,0,1,39.79,104l5.24,3.81A528.81,528.81,0,0,0,175,857.11a525.37,525.37,0,0,0-38.84-62.89Z" transform="translate(-1.9)"/><path class="cls-8" d="M665.88,698.62q-4.61,26.63-9.15,53.27a269.69,269.69,0,0,1-60,19c-73.36,14.07-134.74-6.13-165.52-19q-4.43-26.31-8.86-52.64a471.86,471.86,0,0,0,17.78-102.19,463.5,463.5,0,0,0,.12-56.37c-.21-3.88-.48-7.68-.78-11.39q75.54-.46,151.08-.93L646.2,528c0,1.68.08,3.37.14,5.06,0,1.51.09,3,.15,4.53.76,23.36,2.45,48.21,5.44,74.37q1.35,11.92,3,24.24,2.68,19,5.92,36.87C662.47,681.8,664.13,690.33,665.88,698.62Z" transform="translate(-1.9)"/><path class="cls-9" d="M653.28,623.34c-8.51,4.14-26,6.3-53.39,6.3h0c-.1,0-87.77,4.52-159.63-88.95-5-6.48-9.92-13.58-9.92-13.58-3.26-4.69-6.13-9.07-8.63-13q84.42,7.13,168.85,14.29l55.78,4.71c0,1.51.1,3,.15,4.53C647.54,566.86,649.86,595.44,653.28,623.34Z" transform="translate(-1.9)"/><path class="cls-4" d="M380.18,355.22,347.48,297a34.28,34.28,0,0,1,.13-33.81L363,236.31c-3.63.92-8.64,2.12-14.67,3.33-12.44,2.49-13.67,1.9-14.27,1.43-5.17-4.06,3.68-24.63,9.51-35.2,8.26-15,28.61-42.74,82.22-62.78-5.77-1.28-14.28-3.05-24.67-4.76-29-4.78-36.85-3.21-38.05-6.66-3-8.66,39.77-38.06,89.42-49.94a220.23,220.23,0,0,1,88.94-2.37,80.66,80.66,0,0,1-11.41-20c-3.18-8.08-4.89-12.41-3.33-15.7,5.14-10.84,42.34-3,45.18-2.37,18.43,4,52.29,15.6,88.39,56.12q6.32-30.5,10.66-30.21,5.58.34,7.93,51.14c38.95,7.9,48.47,13.36,48.28,17.1-.09,1.71-3.46,3.71-10.19,7.63a165.89,165.89,0,0,1-19,9.51q50.14,26.33,47.59,33.3-1.65,4.48-25.21.95c8.1,7.45,21.2,21.85,25.21,42.8.92,4.82,3.48,21-13.39,62.47A362.07,362.07,0,0,1,697,357.83Z" transform="translate(-1.9)"/><path class="cls-8" d="M697,357.83c4.26-2.83,16-9.79,28.18-6.37,18.71,5.24,25.1,31.08,25.13,44.94.08,29.47-28.45,58.57-71.44,73.05Q687.89,413.65,697,357.83Z" transform="translate(-1.9)"/><path class="cls-10" d="M728,380.4c-3-2.42-5.53-3-7.53-2.78-15.18,1.73-20.2,52.27-21,60.61,3.11-1.73,24.93-14.15,31.42-31.57,1.32-3.56,3.57-9.61,1.78-16.87A24.63,24.63,0,0,0,728,380.4Z" transform="translate(-1.9)"/><path class="cls-11" d="M719.15,375.19c-10.14.16-17,23.58-18.1,27.54-5.22,18.73-2.7,35.46-1.6,35.5s1-13.46,7.08-34.1c5.74-19.4,10.72-24.25,15-24.73,3.11-.35,6.15,1.56,6.41,1C728.3,379.67,723.67,375.12,719.15,375.19Z" transform="translate(-1.9)"/><path class="cls-11" d="M718.27,403.83c5.09,9-.48,20.65-1.32,20.53S720.42,413,714.51,406c-3.34-4-9.11-5.62-8.75-8.82a2.5,2.5,0,0,1,1-1.79C709.14,394,715.36,398.68,718.27,403.83Z" transform="translate(-1.9)"/><path class="cls-8" d="M391.9,358.06c-4.21-2.91-15.81-10.05-28.08-6.83C345,356.17,338.23,381.91,338,395.76c-.55,29.47,27.51,59,70.26,74.2Q400.07,414,391.9,358.06Z" transform="translate(-1.9)"/><path class="cls-10" d="M363,380.34c3.08-2.38,5.58-2.93,7.58-2.66,15.15,2,19.35,52.58,20,60.93-3.08-1.77-24.7-14.55-30.9-32.06-1.27-3.59-3.43-9.67-1.52-16.9A24.66,24.66,0,0,1,363,380.34Z" transform="translate(-1.9)"/><path class="cls-11" d="M371.89,375.27c10.14.32,16.61,23.85,17.65,27.83,4.92,18.8,2.12,35.5,1,35.51s-.76-13.47-6.53-34.2c-5.43-19.49-10.33-24.42-14.62-25-3.11-.4-6.17,1.46-6.43.9C362.66,379.6,367.37,375.12,371.89,375.27Z" transform="translate(-1.9)"/><path class="cls-11" d="M372.3,403.92c-5.23,8.93.16,20.65,1,20.55S370,413.05,376,406.1c3.41-3.93,9.2-5.48,8.89-8.68a2.49,2.49,0,0,0-1-1.81C381.59,394.22,375.3,398.81,372.3,403.92Z" transform="translate(-1.9)"/><path class="cls-8" d="M706,299.09q-4.5,29-9,58Q685,433.33,673.16,509.59a30.66,30.66,0,0,1-11.3,19.4c-18.17,14.35-52.94,36.55-101.27,40.89-66,5.91-115.18-25.25-136-41.31a30.74,30.74,0,0,1-11.43-18.74q-7.8-42.37-14.9-86.54-5.5-34.47-10.24-68.07v-.13q-4.23-29.8-7.84-58.85c5.63-14.13,20-44.37,52.32-67.54A149.21,149.21,0,0,1,481,205.87q-6.86,8.31-13.72,16.59-18.12,21.91-36.22,43.82a189.81,189.81,0,0,0,116-51.45v0A199.09,199.09,0,0,0,569.5,189.7a318.41,318.41,0,0,1-21,38.05,315.89,315.89,0,0,1-20,27.59,145.16,145.16,0,0,0,99.43-49c3.59-4.07,6.47-7.8,8.71-10.9A241.41,241.41,0,0,1,666.5,226.8,245.8,245.8,0,0,1,706,299.09Z" transform="translate(-1.9)"/><path class="cls-12" d="M505.65,316.79a7.58,7.58,0,0,1,2.37,1.83,8.47,8.47,0,0,1,1.06,9.09,8.62,8.62,0,0,1-1,1.6,8.21,8.21,0,0,1-10.59,1.48A72.71,72.71,0,0,0,466.91,320c-22.29-2.38-39.87,7.21-41.08,4.47-1-2.17,9.15-10.5,21-14.81C470.81,301,494.79,311.15,505.65,316.79Z" transform="translate(-1.9)"/><path class="cls-12" d="M580.36,316.79a7.47,7.47,0,0,0-2.37,1.83,8.47,8.47,0,0,0-1.06,9.09,8.62,8.62,0,0,0,1,1.6,8.21,8.21,0,0,0,10.59,1.48A72.66,72.66,0,0,1,619.1,320c22.29-2.38,39.86,7.21,41.07,4.47,1-2.17-9.14-10.5-21-14.81C615.2,301,591.22,311.15,580.36,316.79Z" transform="translate(-1.9)"/><path class="cls-12" d="M469.91,333.34c16.49-5.53,34.16,8.73,33.61,10.15-.49,1.26-15.19-8.17-32-3.17-12.18,3.61-18.37,12.68-19.34,11.73C451,351,457.58,337.47,469.91,333.34Z" transform="translate(-1.9)"/><path class="cls-12" d="M618.83,333.34c-16.49-5.53-34.16,8.73-33.61,10.15.49,1.26,15.2-8.17,32-3.17,12.18,3.61,18.37,12.68,19.34,11.73C637.7,351,631.17,337.47,618.83,333.34Z" transform="translate(-1.9)"/><ellipse class="cls-13" cx="481.96" cy="365.21" rx="12.68" ry="20.13"/><path class="cls-6" d="M487,358.23a3,3,0,1,1-3-3A3,3,0,0,1,487,358.23Z" transform="translate(-1.9)"/><ellipse class="cls-13" cx="599.92" cy="365.21" rx="12.68" ry="20.13"/><path class="cls-6" d="M604.83,358.23a3,3,0,1,1-3-3A3,3,0,0,1,604.83,358.23Z" transform="translate(-1.9)"/><path class="cls-11" d="M538.18,377.12l-21.77,58.06a3.42,3.42,0,0,0,1.12,3.95,41.37,41.37,0,0,0,50.62.07,3.43,3.43,0,0,0,1.07-4.09Q556.91,406.06,544.6,377A3.46,3.46,0,0,0,538.18,377.12Z" transform="translate(-1.9)"/><path class="cls-11" d="M608.24,432.51a6.05,6.05,0,1,1,9.91,6.89c-7.43,9.44-20,22.46-39.16,30.44-38.5,16.08-77,.73-76.81-.95s42.11,11.42,78.47-10.22A89.81,89.81,0,0,0,608.24,432.51Z" transform="translate(-1.9)"/><path class="cls-14" d="M432.5,228.7A149.21,149.21,0,0,1,481,205.87q-6.86,8.31-13.72,16.59a134.37,134.37,0,0,0-28.13,14.33c-29.44,19.69-43.72,46.34-50,60.4q-.6,29-1.18,58v-.13q-4.23-29.8-7.84-58.85C385.81,282.11,400.17,251.87,432.5,228.7Z" transform="translate(-1.9)"/><path class="cls-14" d="M569.5,189.7a318.41,318.41,0,0,1-21,38.05,315.89,315.89,0,0,1-20,27.59,139.24,139.24,0,0,0,13.32-25.21,137.29,137.29,0,0,0,5.16-15.3v0A199.09,199.09,0,0,0,569.5,189.7Z" transform="translate(-1.9)"/><path class="cls-14" d="M706,299.09q-4.5,29-9,58-.74-29.42-1.42-58.9A239.5,239.5,0,0,0,628,206.31c3.59-4.07,6.47-7.8,8.71-10.9A241.41,241.41,0,0,1,666.5,226.8,245.8,245.8,0,0,1,706,299.09Z" transform="translate(-1.9)"/></g></g></g></svg>